<svg width="7161" height="5283" viewBox="0 0 7161 5283" fill="none" xmlns="http://www.w3.org/2000/svg">
<path d="M3340.74 3221.21C1645.02 3370.45 153.605 2067.05 9.57508 309.984C1.14231 207.11 -0.49945 103.875 0.721408 0.634766H1376.35C1364.85 972.755 2120.95 1788.03 3059.14 1799.94C3114.06 1800.61 3168.99 1798.57 3223.73 1793.76L3340.74 3221.21Z" fill="white"/>
<path fill-rule="evenodd" clip-rule="evenodd" d="M3344.27 2319.09C2177.75 2763.48 1351.79 3912.13 1351.79 5282.07H2383.51C2385.22 4528.98 2769.21 3880.64 3344.27 3517.22V2319.09Z" fill="white"/>
<path d="M0.7229 5282.07C0.7229 3518.68 1394.15 2121.92 3095.97 2121.92C3231.17 2121.92 3366.23 2131.14 3500.26 2149.52L3325.03 3521.42C2369.15 3390.34 1491.69 4087.01 1365.19 5077.47C1355.14 5156.16 1351.79 5202.69 1351.79 5282.07H0.7229Z" fill="white"/>
<path fill-rule="evenodd" clip-rule="evenodd" d="M3344.27 3002.75V1785.44C2786.47 1403.05 2418.67 742.576 2420.36 0.634766H1376.35C1376.35 2.71927 1376.35 16.5297 1376.35 22.6054C1376.35 23.8514 1376.35 24.7721 1376.35 25.1996C1376.35 1382.96 2192.12 2541.56 3344.27 3002.75Z" fill="white"/>
<path d="M3340.38 3221.21C1644.66 3370.45 153.244 2067.05 9.21351 309.984C0.780741 207.11 -0.861022 103.875 0.359836 0.634766H1375.99C1364.49 972.755 2120.59 1788.03 3058.78 1799.94C3113.7 1800.61 3168.63 1798.57 3223.37 1793.76L3340.38 3221.21Z" fill="#AAD979"/>
<path fill-rule="evenodd" clip-rule="evenodd" d="M3343.91 2319.09C2177.38 2763.48 1351.42 3912.13 1351.42 5282.07H2383.15C2384.86 4528.98 2768.84 3880.64 3343.91 3517.22V2319.09Z" fill="#3D5585"/>
<path d="M0.361572 5282.07C0.361572 3518.68 1393.78 2121.92 3095.61 2121.92C3230.81 2121.92 3365.87 2131.14 3499.9 2149.52L3324.67 3521.42C2368.79 3390.34 1491.33 4087.01 1364.83 5077.47C1354.78 5156.16 1351.43 5202.69 1351.43 5282.07H0.361572Z" fill="#FFC000" fill-opacity="0.749"/>
<path fill-rule="evenodd" clip-rule="evenodd" d="M3343.91 3002.75V1785.44C2786.1 1403.05 2418.31 742.576 2420 0.634766H1375.99C1375.99 2.7193 1375.99 16.5301 1375.99 22.6056C1375.99 23.8515 1375.99 24.7721 1375.99 25.1996C1375.99 1382.96 2191.76 2541.56 3343.91 3002.75Z" fill="#FF0000" fill-opacity="0.749"/>
<path d="M5075.95 3347.24H4238.65V5282.07H3193.78V0.634766H5085.27C5687.85 0.634766 6150.31 135.824 6477.29 414.131C6804.27 692.437 6967.76 1085.7 6967.76 1593.91C6967.76 1954.49 6891.85 2255.79 6740.04 2497.8C6590.57 2737.38 6362.85 2928.57 6056.89 3071.35L7161 5231.56V5282.07H6031.02L5075.95 3347.24ZM4238.65 2465.13H5086.46C5350.38 2465.13 5554.74 2396.15 5699.55 2258.21C5844.35 2117.85 5916.75 1925.45 5916.75 1681.03C5916.75 1431.76 5847.86 1235.74 5710.06 1092.96C5574.59 950.173 5365.56 878.781 5082.96 878.781H4238.65V2465.13Z" fill="black"/>
</svg>
